<svg xmlns="http://www.w3.org/2000/svg" viewBox="0 0 132 132"><path fill="#FFEFE1" d="M87.8 121.1h-69c-6.6 0-12-5.4-12-12V26.7c0-6.6 5.4-12 12-12h69.1c6.6 0 12 5.4 12 12v82.4c-.1 6.6-5.5 12-12.1 12z"/><path fill="#FFF" d="M87.8 121.1h-69c-6.6 0-12-5.4-12-12V26.7c0-6.6 5.4-12 12-12h69.1c6.6 0 12 5.4 12 12v82.4c-.1 6.6-5.5 12-12.1 12z"/><path fill="#8C7973" d="M27.4 24.2c-1 0-2-.2-2.9-.6-2.2-1-3.8-3-4.5-5.5-.5-2-.4-3.9-.3-5.6.1-1.7.2-3.8 1.3-5.7 1.4-2.5 4.2-4.1 6.9-3.8 2.3.2 4.4 1.6 5.7 3.6.9 1.6 1.2 3.2 1.5 4.7.2 1.3-.7 2.5-2.2 2.7-1.4.2-2.8-.7-3-2-.2-1.1-.4-2.3-.9-3.2-.4-.6-1-1.1-1.4-1.1-.6 0-1.3.5-1.7 1.2-.6 1.1-.7 2.5-.8 3.9-.1 1.5-.2 3 .2 4.3.3 1.1.9 2 1.7 2.4.6.3 1.4.1 1.6-.1.8-1.1 2.5-1.3 3.7-.6 1.2.7 1.5 2.2.6 3.2-1.2 1.4-3.3 2.2-5.5 2.2zm17.8-.5c-.9 0-1.9-.2-2.8-.6-2.1-1-3.7-2.9-4.3-5.4-.5-1.9-.4-3.8-.3-5.5.1-1.7.2-3.7 1.3-5.6 1.4-2.5 4-4 6.7-3.8 2.2.2 4.3 1.5 5.4 3.6.9 1.5 1.1 3.2 1.4 4.6.2 1.3-.7 2.4-2.1 2.6-1.4.2-2.7-.7-2.9-1.9-.2-1.1-.4-2.3-.9-3.1-.3-.6-.9-1.1-1.4-1.1-.5 0-1.3.5-1.7 1.2-.6 1-.7 2.4-.8 3.8-.1 1.4-.2 2.9.1 4.2.3 1.1.9 2 1.7 2.3.6.3 1.3.1 1.5-.1.8-1 2.4-1.3 3.5-.6 1.1.7 1.4 2.1.6 3.2-.9 1.4-2.9 2.2-5 2.2zm17.7.5c-.9 0-1.8-.2-2.7-.6-2-.9-3.5-2.9-4.1-5.2-.5-1.9-.3-3.8-.2-5.4.1-1.6.3-3.6 1.3-5.5 1.3-2.4 3.9-3.9 6.5-3.7 2.1.2 4.1 1.5 5.2 3.5.8 1.5 1.1 3.1 1.3 4.5.2 1.2-.7 2.4-2.1 2.6-1.3.2-2.6-.6-2.8-1.9-.2-1.1-.3-2.2-.8-3.1-.3-.6-.9-1-1.3-1.1-.5 0-1.2.5-1.6 1.2-.6 1-.7 2.4-.8 3.7-.1 1.4-.2 2.9.1 4.1.3 1.1.9 1.9 1.6 2.3.5.3 1.3.1 1.5-.1.8-1 2.3-1.3 3.4-.6 1.1.7 1.3 2.1.5 3.1-1 1.5-3 2.3-5 2.2zm16.5.5c-.9 0-1.7-.2-2.6-.6-1.9-.9-3.4-2.8-3.9-5.1-.4-1.9-.3-3.7-.2-5.3.2-1.7.3-3.7 1.3-5.5 1.3-2.4 3.8-3.8 6.3-3.6 2.1.2 3.9 1.5 5 3.4.8 1.5 1 3 1.2 4.4.2 1.2-.7 2.3-2 2.5-1.3.2-2.5-.6-2.6-1.8-.2-1.1-.3-2.2-.8-3-.3-.6-.8-1-1.2-1-.5 0-1.2.5-1.6 1.2-.5 1-.6 2.3-.8 3.7-.1 1.4-.2 2.8.1 4 .2 1.1.8 1.9 1.5 2.2.5.2 1.2.1 1.4-.1.8-1 2.2-1.3 3.3-.6 1 .7 1.3 2.1.5 3.1-1.1 1.4-3 2.1-4.9 2.1z"/><path fill="#9EE5E3" d="M81.3 53.8h-8c-5.6 0-10.2-4.6-10.2-10.2v-5.8c0-5.6 4.6-10.2 10.2-10.2h8c5.6 0 10.2 4.6 10.2 10.2v5.8c0 5.6-4.6 10.2-10.2 10.2z"/><path fill="#E3F8FF" d="M80.5 84.5H74c-5.6 0-10.2-4.6-10.2-10.2v-5.8c0-5.6 4.6-10.2 10.2-10.2h6.5c5.6 0 10.2 4.6 10.2 10.2v5.8c.1 5.5-4.6 10.2-10.2 10.2z"/><path fill="#FF5C5C" d="M82.9 114.9h-8.3c-5.6 0-10.2-4.6-10.2-10.2v-5.8c0-5.6 4.6-10.2 10.2-10.2h8.3c5.6 0 10.2 4.6 10.2 10.2v5.8c0 5.6-4.6 10.2-10.2 10.2z"/><path fill="#FFF" d="M71.6 96.2c4.7 4 9.4 7.9 14.2 11.7-.1-.1-.2-.3-.3-.4m-13.2 1.4c3.9-4.8 7.8-9.5 11.7-14.3"/><path fill="#FFF" d="M116 71.2c-3.5-2-7.8-2.4-11.8-1.9-4 .5-7.9 2.4-10.2 5.7-1 1.4-1.9 3.2-3.6 3.6-1.6.4-3.2-.7-4.6-1.5-2-1.2-4.2-2.2-6.4-2.8-.9-.3-2-.4-2.7.1-1.1.8-.9 2.5-.3 3.7 1.6 3.4 4.8 5.7 8 7.8 1.4.9 2.9 1.9 4.6 2 3.6.3 6.2-3.2 8-6.4.9 6.3 1.8 12.7.4 18.9-.7 3.1-1.9 6-2.8 9-1.6 4.9-2.5 10-2.8 15.1-.1 1.6 0 3.5 1.6 4.4 1 .6 2.2.4 3.2-.1 1.7-1 2.4-2.7 3-4.4.8-2.3 1.3-4.8 1.6-7.3.5-4.7 1.2-9.5 3.1-13.9.9-2 2.3-2 3.8-.3 3 3.5 4.8 26.4 8.3 26.2 1.5-.1 2.3-1.9 2.6-3 .3-1.1.2-3.6 0-4.7-1.1-10.6-2.4-21.2-4-31.8-.3-1.9-.9-3.6-.8-5.5 0-.4.1-.8.4-1.1.4-.5 1.2-.4 1.7-.1.5.4.9.9 1.2 1.5 1.7 3.2 2.3 11.1 5.1 11 3 0 3.3-3.5 3-4.7l-.9-4.2c-.5-2.3-.9-4.5-1.9-6.6-.9-2.4-4.1-7.1-6.8-8.7z"/><ellipse cx="106.9" cy="61.9" fill="#FFF" rx="9" ry="9.4"/><path fill="#553045" d="M24.6 46.3c1.2 0 2.3-.4 3.2-1.2 1.6-1.5 3.2-7.7 6.3-2.2.7 1.2 1.7 3.1 3.6 3.3 4.4.5 4-6.2 9-5.6 3 .3 2.9 2.7 4 1.9.3-.2.4-.7.2-1-.9-1.3-2.4-2.2-4.1-2.4-5.9-.6-5.9 6-9 5.6-2.4-.3-2.8-5.8-6.5-5.5-2.7.2-3.2 3.4-4.7 4.8s-4.2.8-5.6-.6c-3.1-3-2.4-7.2-4-6.7-.4.1-.6.5-.5.9 1.5 4.4 3.4 8.7 8.1 8.7zm19.7 19.4c-2.6 1.8-6.1 10.8-9.5 1.8-1.2-3-2.7-4.6-4.7-4.6-3 0-4.1 3.4-5.8 5.1-3.1 2.8-8.1.3-7.5-3.9.1-1-1.4-1.2-1.5-.2-.7 5.5 5.9 9 10 5.2 1.8-1.7 2.8-4.6 4.8-4.7 3.7 0 3.1 8.5 8.1 8.5 5.1 0 5-8.2 10.5-6.2 3 1.1 2 3.4 3.4 3 .4-.1.6-.5.5-.9-1-3.5-5.5-5.1-8.3-3.1zm0 31.1c-2.3 1.6-3.6 6-6.4 5.7-3.5-.5-3-8.5-7.9-8.5-2.9 0-4 3.5-5.8 5.1-3.1 2.8-8.1.3-7.5-3.9.1-1-1.4-1.2-1.5-.2-.7 5.5 5.9 9 10 5.2 1.8-1.7 2.8-4.6 4.8-4.7 3.6-.1 3.1 8.5 8.1 8.5s5.1-8.2 10.5-6.2c1.2.5 2.2 1.4 2.5 2.5.3 1 1.7.5 1.4-.4-.4-1.7-5.4-5.1-8.2-3.1zm29-42.3h8c6.1 0 11-4.9 11-11v-5.8c0-6.1-4.9-11-11-11h-8c-6.1 0-11 4.9-11 11v5.8c0 6.1 4.9 11 11 11zm-9.5-16.8c0-5.2 4.3-9.5 9.5-9.5h8c5.2 0 9.5 4.3 9.5 9.5v5.8c0 5.2-4.3 9.5-9.5 9.5h-8c-5.2 0-9.5-4.3-9.5-9.5v-5.8zm19.1 50.2h-8.3c-6.1 0-11 4.9-11 11v5.8c0 6.1 4.9 11 11 11h8.3c6.1 0 11-4.9 11-11v-5.8c0-6.1-4.9-11-11-11zm9.5 16.8c0 5.2-4.3 9.5-9.5 9.5h-8.3c-5.2 0-9.5-4.3-9.5-9.5v-5.8c0-5.2 4.3-9.5 9.5-9.5h8.3c5.2 0 9.5 4.3 9.5 9.5v5.8z"/><path fill="#553045" d="M74.1 49.3c.3 0 .4-.1.6-.3l12-14.2c.3-.3.2-.8-.1-1.1-1.1-.9-1.3.8-12.5 13.7-6.7-5.8-7.4-7.7-8.3-6.7-1 1 1.1 1.6 7.9 8.3 0 .2.2.3.4.3zm11.4 57.5-6.3-5.1c4.5-5.9 6.3-6.7 5.2-7.6-1-.9-1.5 1.1-6.4 6.6-6.3-5.2-6.4-5.8-7.1-5-.7.8 0 1 6.2 6.2l-5.4 6.6c-.4.5 0 1.2.6 1.2.7 0 .4-.2 6-6.9 7.2 5.9 7.3 6.2 8 5.6.3-.3.3-.7.1-1-.2-.2-.4-.6-.9-.6zm-17.8 21.7c-.4 0-.7.4-.7.8s.4.7.8.7l20.2-1.6-20.3.1z"/><path fill="#553045" d="M125.5 86.1c-.5-2.3-1-4.6-1.9-6.8-1.1-2.3-3.9-7.2-7.2-8.8-.9-.4-1.9-.8-2.9-1.1 6.5-6.2 2.3-17.6-6.6-17.6-2.4 0-4.6.9-6.3 2.4V26.7c0-7-5.7-12.8-12.8-12.8H87c.7-1.5-.3-4.8-1.1-6.3-2.8-5.3-9.8-5-12.6.2-1 2-1.2 3.9-1.4 6.1h-1.7c.6-.7.8-1.5.7-2.3-.2-1.5-.5-3.1-1.4-4.8-3-5.4-10.2-5-13 .2-1.1 2.1-1.3 4.4-1.4 6.9h-3.3c1.1-.6 1.8-1.8 1.6-3.1-.2-1.5-.5-3.2-1.5-4.8C48.8.5 41.4.8 38.5 6.2c-1.2 2.2-1.4 5.2-1.5 7.8h-2.3c.8-.6 1.4-1.7 1.1-2.9-.3-1.5-.6-3.2-1.6-4.9C31 .6 23.4.9 20.4 6.4c-1.2 2.2-1.4 4.8-1.5 7.6h-.1c-7 0-12.7 5.7-12.7 12.8v82.4c0 7 5.7 12.8 12.7 12.8 72.4-.2 69.3.5 72.6-.5-.6 3-1.1 6.7 1.5 8.1 1.3.7 2.8.5 4.1-.2 3.3-2 3.9-7 4.5-10.7.9-5.5 2.4-16 4.9-16 .5 0 .9.8 1.1 1.3.5 1 2.4 9 3.9 14.9 1.4 5.8 2 8.1 2.2 8.4 1 2.1 2.2 2.6 3 2.6 2.1 0 3.3-2.7 3.3-4.9-.1-1.7-2.5-25.3-4-35.4-.2-1.2-1.5-6.1-.3-6.1 2.4 0 2.7 9.7 5.7 11.9 1.2.9 2.8.9 3.8.3.8-.9 1.3-5.4.4-9.6zm-18.7-32.8c9.3 0 11.4 13.7 2.7 16.8-7.7 2.9-14.5-6.9-9-13.7 1.6-1.9 3.8-3.1 6.3-3.1zM84.6 8.4c.7 1.4 1 2.9 1.1 4.2.1.5-.2 1.1-.6 1.4-.6.4-1.4.4-2 0-1-.8-.3-2.2-1.4-4.2-1.5-2.8-5-1.4-5 4.2-.1 1.4-.2 2.9.1 4.1.7 3 3.3 3.6 4.3 2.4.8-1 2.6-.8 2.9.5.3 1.6-2.5 3-4.4 3-.1 0-1.2.1-2.4-.5-3.6-1.7-4-5.6-3.7-9.5 0-9.5 8.3-10.9 11.1-5.6zm-3.3 5.5h-3c.1-1.2.3-3.9 1.5-4.1 1 .3 1.2 3.4 1.5 4.1zM57.9 7.8c2.3-4.3 7.9-4.5 10.4-.2.8 1.4 1 2.9 1.2 4.2.3 1.9-3 2.4-3.3.5-.3-2-.8-4.6-2.9-4.8-.8 0-1.8.7-2.3 1.6-.8 1.5-1 5.3-1 6.3 0 4.9 3.5 5.8 4.6 4.4.8-1.1 2.8-.8 3 .6.6 3.5-11.8 6.4-11-6.5.2-2.2.3-4.3 1.3-6.1zm7.4 6.1h-3.7c.1-1.2.1-3.1.7-4.1.3-.5.8-.8.9-.8.1 0 .5.2.7.7.8 1.5.4 3.1 1.4 4.2zm-25.5-7c2.4-4.3 8.3-4.6 10.8-.2.8 1.4 1.1 3 1.3 4.3.3 2-3.2 2.5-3.5.5-.3-2-.9-4.7-3-4.9-.8 0-1.8.7-2.3 1.6-.9 1.6-1 5.9-.9 7.2.4 4.5 3.8 5.1 4.7 3.8 1.3-1.7 4.3 0 2.9 1.7-3 3.9-11.7 2.4-11.4-7 .1-.6.4-5.1 1.4-7zm8.7 7h-4.8c.1-6.2 2.2-8.1 3.3-2.2.1 1 .7 1.8 1.5 2.2zM21.7 7.1C24.2 2.6 30.4 2.5 33 7c.9 1.5 1.1 3 1.4 4.4.3 2.1-3.3 2.5-3.7.5-.3-2-1-4.8-3-4.9-.1 0-1.5-.1-2.4 1.6-1 1.8-1.2 6.8-.7 8.7.8 3.1 3.7 3.7 4.7 2.5 1.4-1.7 4.5 0 3.1 1.7-3 3.9-12.3 2.7-11.9-7.5 0-2.5.2-5.1 1.2-6.9zm8.6 6.8h-4.6c.2-6.6 2.4-7.5 3.4-1.9.2.8.6 1.5 1.2 1.9zM18.8 120.4c-6.2 0-11.2-5.1-11.2-11.3V26.7c0-6.2 5-11.3 11.2-11.3h.1c.3 9.8 10.7 11.9 14.6 6.9 1.1-1.4.7-3.4-.8-4.3-1.4-.9-3.5-.6-4.6.7-1 .4-2.2-1-2.3-3.3H37c.5 9.5 10.3 11.2 14 6.4 1-1.3.8-3.3-.8-4.3-1.4-.9-3.5-.6-4.5.7-1.1.4-2-1.3-2.1-2.8H55c0 10 9.9 11.8 13.5 7 .5-.7.7-1.5.6-2.3-.5-2.7-4-3.3-5.7-1.3-1.3.4-2-1.8-2-3.5h10.3c-.2 5.1 1.9 8 4.6 9.3.9.4 1.9.7 2.9.7h.2c2.2 0 4.1-.9 5.3-2.5.5-.7.7-1.4.6-2.2-.1-.8-.6-1.5-1.3-1.9-1.1-.7-3-.4-4 .8-.1 0-.4.1-.6 0-.5-.2-.9-.9-1.1-1.7-.2-.7-.2-1.5-.1-2.3h4.6c.8.4 1.9.4 2.8 0h2.3c6.2 0 11.3 5 11.3 11.3V56c-2.6 3.6-2.6 8.5 0 12.2v2c-5.6 2.6-6.2 6.5-8.1 7.7.9-2.7.4-4.3.6-9.3 0-6.1-4.9-11-11-11H74c-6.1 0-11 4.9-11 11v5.8c0 6.1 4.9 11 11 11 6.5 0 6.8.1 7.9-.1 2.3 1.7 4.7 3.4 6.9 3.5 2.8.2 5.3-1.4 7.6-4.9 2 17.4-1.4 20.9-4.7 35.9-1.2.3-1.2.3-72.9.6zm66.7-56.2-6.2 9.3c-2.4-.6-3.7.4-4 2.1-6-5.1-6.7-7-7.6-5.9-1 1 1.2 1.7 7.8 8.2.6 2.2 2.9 4.5 4.6 6H74c-5.2 0-9.5-4.3-9.5-9.5v-5.8c0-5.2 4.3-9.5 9.5-9.5h6.5c5.2 0 9.5 4.3 9.5 9.5-.2 4.8.4 6.7-.8 9.5-2-.4-3.5-2.4-8.4-4l5.9-8.9c.6-1-.7-1.8-1.2-1zM121 92.6c-.9-2.1-1.7-5.9-2.8-8.6-1.4-3.2-4.5-2.7-4.7-.1-.2 2 .5 3.8.8 5.7 1.6 10.1 4 33.5 4 35.2.1 1.1-.3 2.3-.9 2.9-1 1-1.8 0-2.4-1.3-.2-.4-1.1-4.4-2.1-8.2-3.6-14.6-3.9-17.3-6.5-17.3-1.5 0-2.7 1.7-2.8 2-3.8 8-2.5 21.9-7.3 24.9-.8.5-1.8.6-2.6.2-1.9-1.1-1.1-5.1-.6-7.4 3.1-15.3 7.5-19.3 4.6-39.4-.1-.7-1.1-.9-1.4-.3-4.7 8.6-8.4 6.2-12.3 3.5-2.7-1.8-5.4-3.9-6.8-6.9-.7-1.6-.5-3.2 1.3-3 .3 0 .7.1.9.2 8.8 2.4 9.9 8.6 15.4.4 1.7-2.4 4.3-4 7.1-4.9 3.1 2 7 2 10.2 0 1.3.3 2.5.8 3.7 1.3 3 1.4 5.7 6.3 6.5 8 1.1 2.4 1.6 5.1 2.7 10.7.8 5.1-2.9 5-4 2.4zm-1.2-43.1c2.1 1.2 2.6 1.9 3.5 3.9.7 1.6.9 4.9-.3 8.5-1.1 3-1.5 2.4-1.3 2.5-.2-.1.2.4 1.5-2.4 2.2-5.2 2-10.6-2.7-13.8-.5-.3-1.3-.9-1.7-.1-.2.4.5 1.2 1 1.4z"/></svg>